<?xml version="1.0" encoding="UTF-8" standalone="no"?>
<svg
   width="360"
   height="360"
   viewBox="0 0 360 360"
   version="1.1"
   id="svg70"
   sodipodi:docname="inti-2.svg"
   inkscape:version="1.4 (86a8ad7, 2024-10-11)"
   xmlns:inkscape="http://www.inkscape.org/namespaces/inkscape"
   xmlns:sodipodi="http://sodipodi.sourceforge.net/DTD/sodipodi-0.dtd"
   xmlns:xlink="http://www.w3.org/1999/xlink"
   xmlns="http://www.w3.org/2000/svg"
   xmlns:svg="http://www.w3.org/2000/svg">
  <sodipodi:namedview
     id="namedview70"
     pagecolor="#505050"
     bordercolor="#eeeeee"
     borderopacity="1"
     inkscape:showpageshadow="0"
     inkscape:pageopacity="0"
     inkscape:pagecheckerboard="0"
     inkscape:deskcolor="#505050"
     inkscape:zoom="1.6208334"
     inkscape:cx="70.025706"
     inkscape:cy="231.05398"
     inkscape:window-width="2560"
     inkscape:window-height="1369"
     inkscape:window-x="1072"
     inkscape:window-y="468"
     inkscape:window-maximized="1"
     inkscape:current-layer="svg70" />
  <defs
     id="defs1">
    <style
       id="style1">
            #light, #dark {
                display: none;
            }
            #light:target, #dark:target {
                display: block;
            }
        </style>
  </defs>
  <g
     id="default"
     style="display:inline">
    <g
       fill="#bb1122"
       stroke="#000000"
       stroke-width="2"
       id="g30">
      <g
         id="g-a"
         transform-origin="180 180">
        <animateTransform
           attributeName="transform"
           attributeType="XML"
           begin="0s"
           dur="0.5s"
           from="0"
           repeatCount="indefinite"
           to="-22.5"
           type="rotate" />
        <path
           id="a"
           d="m 174,110 c 0,-35.977551 2.48213,-104.5672976 3,-106.5 0.25995,-0.9701552 1.00165,-2.500455 3,-2.500455 2.00209,0 2.74139,1.5352929 3,2.500455 0.50662,1.8907429 3,70.415481 3,106.5 z" />
        <use
           xlink:href="#a"
           transform="rotate(-22.5,180,180)"
           id="use1" />
        <use
           xlink:href="#a"
           transform="rotate(-45,180,180)"
           id="use2" />
        <use
           xlink:href="#a"
           transform="rotate(-67.5,180,180)"
           id="use3" />
        <use
           xlink:href="#a"
           transform="rotate(-90,180,180)"
           id="use4" />
        <use
           xlink:href="#a"
           transform="rotate(-112.5,180,180)"
           id="use5" />
        <use
           xlink:href="#a"
           transform="rotate(-135,180,180)"
           id="use6" />
        <use
           xlink:href="#a"
           transform="rotate(-157.5,180,180)"
           id="use7" />
        <use
           xlink:href="#a"
           transform="rotate(180,180,180)"
           id="use8" />
        <use
           xlink:href="#a"
           transform="rotate(157.5,180,180)"
           id="use9" />
        <use
           xlink:href="#a"
           transform="rotate(135,180,180)"
           id="use10" />
        <use
           xlink:href="#a"
           transform="rotate(112.5,180,180)"
           id="use11" />
        <use
           xlink:href="#a"
           transform="rotate(90,180,180)"
           id="use12" />
        <use
           xlink:href="#a"
           transform="rotate(67.5,180,180)"
           id="use13" />
        <use
           xlink:href="#a"
           transform="rotate(45,180,180)"
           id="use14" />
        <use
           xlink:href="#a"
           transform="rotate(22.5,180,180)"
           id="use15" />
      </g>
      <g
         id="g-b"
         transform-origin="180 180">
        <animateTransform
           attributeName="transform"
           attributeType="XML"
           begin="0s"
           dur="0.5s"
           from="0"
           repeatCount="indefinite"
           to="-22.5"
           type="rotate" />
        <path
           id="b"
           d="m 160.45858,112.51602 c -1.8136,-9.11758 -4.52336,-10.89615 -6.64415,-23.148564 -2.1208,-12.252416 2.33463,-20.066446 0.71795,-29.711444 -1.61668,-9.644997 -8.04789,-15.499365 -10.17136,-25.505751 -2.12346,-10.006387 0.90668,-26.7032156 2.87414,-29.1202544 1.96748,-2.4170407 4.78234,-1.7579844 5.29412,0.9861176 0.51178,2.7441017 -1.37677,16.1448158 0.65881,26.3783238 2.03557,10.233508 9.22081,15.601129 11.15215,25.310661 1.93134,9.709531 -2.13433,18.667292 0.26284,29.516351 2.39714,10.849064 5.84436,14.00418 7.62451,22.95358 z" />
        <use
           xlink:href="#b"
           transform="rotate(-22.5,180,180)"
           id="use16" />
        <use
           xlink:href="#b"
           transform="rotate(-45,180,180)"
           id="use17" />
        <use
           xlink:href="#b"
           transform="rotate(-67.5,180,180)"
           id="use18" />
        <use
           xlink:href="#b"
           transform="rotate(-90,180,180)"
           id="use19" />
        <use
           xlink:href="#b"
           transform="rotate(-112.5,180,180)"
           id="use20" />
        <use
           xlink:href="#b"
           transform="rotate(-135,180,180)"
           id="use21" />
        <use
           xlink:href="#b"
           transform="rotate(-157.5,180,180)"
           id="use22" />
        <use
           xlink:href="#b"
           transform="rotate(180,180,180)"
           id="use23" />
        <use
           xlink:href="#b"
           transform="rotate(157.5,180,180)"
           id="use24" />
        <use
           xlink:href="#b"
           transform="rotate(135,180,180)"
           id="use25" />
        <use
           xlink:href="#b"
           transform="rotate(112.5,180,180)"
           id="use26" />
        <use
           xlink:href="#b"
           transform="rotate(90,180,180)"
           id="use27" />
        <use
           xlink:href="#b"
           transform="rotate(67.5,180,180)"
           id="use28" />
        <use
           xlink:href="#b"
           transform="rotate(45,180,180)"
           id="use29" />
        <use
           xlink:href="#b"
           transform="rotate(22.5,180,180)"
           id="use30" />
      </g>
      <g
         id="g-circle">
        <circle
           cx="180"
           cy="180"
           r="70"
           stroke-width="2"
           id="circle30" />
      </g>
    </g>
    <g
       fill="#000000"
       id="g60"
       style="display:inline">
      <g
         id="g-spikes"
         transform-origin="180 180">
        <animateTransform
           attributeName="transform"
           attributeType="XML"
           begin="0s"
           dur="0.5s"
           from="0"
           repeatCount="indefinite"
           to="-22.5"
           type="rotate" />
        <path
           id="c"
           d="m 178.5,109.07496 c 0,0 1,-45.92318 1,-46.574162 0,0 -0.002,-0.500797 0.5,-0.500797 0.5018,0 0.5,0.500797 0.5,0.500797 0,0.519777 1,46.574162 1,46.574162 z" />
        <use
           xlink:href="#c"
           transform="rotate(-22.5,180,180)"
           id="use31" />
        <use
           xlink:href="#c"
           transform="rotate(-45,180,180)"
           id="use32" />
        <use
           xlink:href="#c"
           transform="rotate(-67.5,180,180)"
           id="use33" />
        <use
           xlink:href="#c"
           transform="rotate(-90,180,180)"
           id="use34" />
        <use
           xlink:href="#c"
           transform="rotate(-112.5,180,180)"
           id="use35" />
        <use
           xlink:href="#c"
           transform="rotate(-135,180,180)"
           id="use36" />
        <use
           xlink:href="#c"
           transform="rotate(-157.5,180,180)"
           id="use37" />
        <use
           xlink:href="#c"
           transform="rotate(180,180,180)"
           id="use38" />
        <use
           xlink:href="#c"
           transform="rotate(157.5,180,180)"
           id="use39" />
        <use
           xlink:href="#c"
           transform="rotate(135,180,180)"
           id="use40" />
        <use
           xlink:href="#c"
           transform="rotate(112.5,180,180)"
           id="use41" />
        <use
           xlink:href="#c"
           transform="rotate(90,180,180)"
           id="use42" />
        <use
           xlink:href="#c"
           transform="rotate(67.5,180,180)"
           id="use43" />
        <use
           xlink:href="#c"
           transform="rotate(45,180,180)"
           id="use44" />
        <use
           xlink:href="#c"
           transform="rotate(22.5,180,180)"
           id="use45" />
        <path
           id="d"
           d="m 164.73972,110.71688 c 0,0 -1.37273,-4.37555 -3.19309,-9.52273 -2.8797,-8.142521 -3.98462,-13.137691 -4.34817,-16.57442 -1.04331,-9.862236 2.28533,-20.475647 2.324,-20.618981 0,0 0.0687,-0.357753 0.50449,-0.357753 0.586,0 0.50761,0.858807 0.50761,0.858807 0,0.383134 -1.87679,9.930678 -0.86214,19.629173 0.37551,3.58925 1.80514,7.93873 4.79475,16.235874 1.82288,5.05903 3.24131,9.76352 3.24131,9.76352 z" />
        <use
           xlink:href="#d"
           transform="rotate(-22.5,180,180)"
           id="use46" />
        <use
           xlink:href="#d"
           transform="rotate(-45,180,180)"
           id="use47" />
        <use
           xlink:href="#d"
           transform="rotate(-67.5,180,180)"
           id="use48" />
        <use
           xlink:href="#d"
           transform="rotate(-90,180,180)"
           id="use49" />
        <use
           xlink:href="#d"
           transform="rotate(-112.5,180,180)"
           id="use50" />
        <use
           xlink:href="#d"
           transform="rotate(-135,180,180)"
           id="use51" />
        <use
           xlink:href="#d"
           transform="rotate(-157.5,180,180)"
           id="use52" />
        <use
           xlink:href="#d"
           transform="rotate(180,180,180)"
           id="use53" />
        <use
           xlink:href="#d"
           transform="rotate(157.5,180,180)"
           id="use54" />
        <use
           xlink:href="#d"
           transform="rotate(135,180,180)"
           id="use55" />
        <use
           xlink:href="#d"
           transform="rotate(112.5,180,180)"
           id="use56" />
        <use
           xlink:href="#d"
           transform="rotate(90,180,180)"
           id="use57" />
        <use
           xlink:href="#d"
           transform="rotate(67.5,180,180)"
           id="use58" />
        <use
           xlink:href="#d"
           transform="rotate(45,180,180)"
           id="use59" />
        <use
           xlink:href="#d"
           transform="rotate(22.5,180,180)"
           id="use60" />
      </g>
      <g
         id="g-face">
        <path
           id="path60-9-8"
           style="display:inline;fill:#000000;stroke-width:1"
           inkscape:label="path60"
           d="m 145.42188,144.125 c -3.04121,0.0198 -5.68231,1.04082 -9.09961,2.9668 -1.40794,0.79349 -6.32227,4.03183 -6.32227,4.16601 0,0.0358 0.84592,-0.22062 1.87891,-0.57031 12.86445,-4.35489 18.83319,-3.39513 34.03515,5.47266 1.99068,1.16121 2.10783,1.20242 1.81446,0.63867 -0.21025,-0.40397 -0.20567,-0.40405 0.26757,0.0312 0.58247,0.53576 0.59895,0.35583 0.10352,-1.17773 -0.20913,-0.64727 -0.39476,-1.54532 -0.41211,-1.99414 -0.0309,-0.79836 -0.46478,-0.91562 -0.50586,-0.13672 -0.009,0.16402 -0.0921,0.0523 -0.18555,-0.25 -0.0934,-0.30233 -0.12755,-0.75586 -0.0742,-1.00781 l 0.0977,-0.45899 -0.36914,0.4336 c -0.20308,0.23791 -0.36914,0.54553 -0.36914,0.68554 0,0.55579 -0.3259,0.19589 -0.9082,-1.00781 l -0.61133,-1.26367 -3.13477,-1.42187 c -7.72532,-3.50064 -12.29496,-5.13092 -16.20507,-5.10547 z m 68.61718,0.0586 c -3.69965,0.0847 -7.85681,1.52453 -13.96875,4.28321 -5.35805,2.41838 -4.71978,2.01434 -5.41015,3.4414 -0.58566,1.2106 -0.91211,1.57231 -0.91211,1.01563 0,-0.14001 -0.16605,-0.44763 -0.36914,-0.68555 l -0.36914,-0.43359 0.0976,0.45898 c 0.0533,0.25195 0.0192,0.70548 -0.0742,1.00781 -0.0935,0.30237 -0.17673,0.41402 -0.18555,0.25001 -0.0411,-0.77891 -0.47498,-0.66164 -0.50586,0.13671 -0.0174,0.44883 -0.20299,1.34688 -0.41211,1.99414 -0.20911,0.64728 -0.37891,1.27597 -0.37891,1.39649 0,0.13009 0.16048,0.0764 0.39649,-0.13086 0.35688,-0.31331 0.38622,-0.31523 0.28125,-0.0273 -0.15399,0.42224 -0.39373,0.5276 2.8125,-1.25782 15.28176,-8.50975 19.98923,-9.24992 32.5,-5.12109 1.31853,0.43514 2.42496,0.76643 2.45898,0.73633 0.034,-0.0301 -1.30178,-0.95995 -2.96875,-2.06641 -5.19339,-3.44713 -8.79924,-5.09399 -12.99218,-4.99805 z m -7.45117,11.83594 0.26953,0.9043 c 0.31427,1.05425 0.22022,1.18057 -0.92383,1.22851 -0.81772,0.0343 -0.97697,0.0571 -1.37304,0.20118 -0.15117,0.055 -0.89678,0.31686 -1.65625,0.58203 -2.26708,0.79156 -4.94688,2.68464 -6.88868,4.86523 l -0.89257,1.00195 1.2832,-1.01953 c 2.25823,-1.79266 4.95338,-3.33423 6.44922,-3.68945 1.34412,-0.31918 0.52264,2.12235 -0.9082,2.69922 -3.91417,1.57806 -7.56172,5.14658 -9.65235,9.44336 l -0.40234,0.82422 0.92773,-0.94922 c 0.51037,-0.52161 0.92774,-0.8357 0.92774,-0.69922 0,0.36217 0.52126,0.82422 0.92968,0.82422 0.46002,0 0.45766,-0.29726 -0.004,-0.41797 -1.22927,-0.32146 -0.1647,-1.91665 3.10352,-4.64844 l 1.18945,-0.99414 0.19922,1.06055 c 1.37401,7.27901 12.2393,6.0925 11.57227,-1.26367 -0.10987,-1.21156 -0.15587,-1.18217 1.16796,-0.71875 3.29409,1.15311 3.72125,2.27978 1.61133,4.24804 -3.74102,3.48983 -7.52634,4.26931 -14.17968,2.92383 -2.08902,-0.42245 -3.06862,-0.4637 -3.95899,-0.16601 -1.11228,0.37188 -0.91946,0.44422 1.00195,0.37304 1.82213,-0.0675 1.96678,-0.0424 4.07227,0.6836 3.30097,1.13824 6.21186,1.33167 8.81055,0.58593 0.66922,-0.19205 0.78576,-0.0417 0.80468,1.05079 0.011,0.63561 0.0211,0.64803 0.19532,0.21484 0.10158,-0.25195 0.15055,-0.69272 0.10937,-0.97852 -0.19414,-1.3481 1.08897,-1.00378 1.33203,0.35743 l 0.16016,0.89453 -0.0332,-1.1875 c -0.0541,-1.88786 0.77334,-1.7176 1.13867,0.23437 0.14411,0.76997 0.14476,0.77088 0.29297,0.23242 0.0868,-0.31553 0.0644,-0.84739 -0.0527,-1.2832 -0.38537,-1.43352 0.38308,-1.36057 1.23437,0.11719 0.53212,0.92372 0.55414,0.94007 0.44532,0.33008 -0.0629,-0.35273 -0.27346,-0.92245 -0.46876,-1.26563 -0.73609,-1.29346 0.62158,-1.26552 2.00196,0.041 0.35109,0.33229 0.5957,0.46025 0.5957,0.3125 0,-0.13781 -0.3669,-0.60047 -0.81445,-1.0293 -0.70514,-0.67563 -0.77614,-0.81172 -0.53516,-1.01172 0.35788,-0.29701 1.18669,0.12673 2.25001,1.14844 0.41172,0.39564 0.74804,0.67259 0.74804,0.61524 0,-0.34053 -0.64032,-1.54217 -1.05078,-1.97071 -1.1005,-1.14894 0.83595,-0.38008 2.125,0.84375 l 0.79883,0.75977 -0.29883,-0.59375 c -0.39174,-0.77756 -1.34261,-1.85286 -2.03125,-2.29492 l -0.55078,-0.35352 0.55078,0.12305 c 1.09416,0.24424 1.85444,0.73664 3.08984,1.99805 l 1.25977,1.28515 -0.49219,-0.96875 c -0.63751,-1.25805 -1.73831,-2.44154 -2.65625,-2.85547 -0.99497,-0.44867 -0.76297,-1.01367 0.41601,-1.01367 0.84297,0 2.47007,-0.3748 3.78712,-0.87305 l 0.82421,-0.3125 -1.28124,-0.1914 -1.28321,-0.19336 1.00781,-0.51953 c 2.65775,-1.37301 4.75658,-3.71397 5.78907,-6.45703 0.58755,-1.56095 0.55793,-1.61218 -0.20118,-0.35157 -1.26936,2.108 -3.09168,4.07291 -4.76172,5.13477 -0.44449,0.28262 -0.37445,0.15532 0.3672,-0.67774 1.60502,-1.80287 2.75763,-4.14079 3.09765,-6.27734 0.0963,-0.60463 -0.0284,-0.43215 -0.7129,0.98438 -0.73243,1.51591 -2.34871,4.05468 -2.58203,4.05468 -0.047,0 0.10802,-0.39239 0.34571,-0.87109 0.51497,-1.03715 0.81161,-2.16907 0.91211,-3.48047 0.0962,-1.25495 -0.09,-1.22039 -0.49805,0.0918 -0.49878,1.60403 -1.49361,3.37141 -2.50976,4.46484 l -0.91407,0.98633 0.45118,-0.82422 c 0.62251,-1.13492 1.0342,-2.63669 1.02734,-3.74414 l -0.006,-0.92969 -0.59961,1.57617 c -0.55184,1.45009 -1.87763,3.6003 -2.57812,4.18164 -0.48545,0.4029 -0.33023,0.0739 0.44335,-0.94336 0.98636,-1.29703 1.50956,-2.70099 1.5879,-4.26367 l 0.0644,-1.2832 -0.51953,1.40234 c -0.50733,1.3714 -1.7942,3.56299 -2.37109,4.03906 -0.15928,0.13138 -0.2498,0.15548 -0.20313,0.0547 0.0468,-0.10077 0.26565,-0.56675 0.48829,-1.03711 0.48475,-1.02416 0.77182,-2.42606 0.7578,-3.70508 l -0.01,-0.9375 -0.5,1.38086 c -0.79596,2.20293 -2.133,4.29211 -1.48633,2.32227 0.17215,-0.52439 0.35837,-1.3208 0.41406,-1.76953 l 0.10157,-0.81641 -0.76563,1.43555 c -1.02806,1.92723 -1.14601,1.83297 -1.06836,-0.85938 0.0677,-2.34838 -0.0928,-2.66646 -0.45312,-0.90039 -0.55939,2.74236 -1.33973,3.19278 -1.3711,0.79102 -0.0251,-1.92762 -0.23661,-2.64631 -0.41211,-1.40039 -0.32201,2.28603 -0.33179,2.31819 -0.61132,2.21093 -0.14939,-0.0574 -0.34195,-0.10351 -0.42969,-0.10351 -0.0877,0 -0.18767,-0.51466 -0.22071,-1.14453 -0.0597,-1.14095 -0.0601,-1.14325 -0.21093,-0.39258 -0.0833,0.41442 -0.20434,0.83985 -0.26953,0.94531 -0.15167,0.24539 -1.12184,0.0663 -1.13282,-0.20898 -0.005,-0.11423 -0.12069,-0.45547 -0.25781,-0.75781 l -0.25,-0.54883 0.10352,0.71679 c 0.0986,0.68498 0.0839,0.71053 -0.33789,0.59766 -0.24252,-0.0649 -0.62677,-0.12022 -0.85352,-0.12109 -0.22675,-10e-4 -0.416,-0.1045 -0.41992,-0.23047 -0.005,-0.12597 -0.12069,-0.47696 -0.25781,-0.7793 l -0.25,-0.55078 0.0976,0.6875 c 0.13213,0.92337 -1.02367,1.07519 -1.39843,0.18359 -0.1165,-0.27714 -0.37204,-0.71095 -0.56641,-0.96289 z m -53.31836,0.2168 c -0.0695,0.019 -0.24143,0.30839 -0.52148,0.86914 -0.59299,1.18734 -1.78921,1.29793 -1.625,0.15039 l 0.0976,-0.6875 -0.25,0.55078 c -0.13712,0.30233 -0.25389,0.65332 -0.25781,0.7793 -0.005,0.12598 -0.19317,0.2296 -0.41992,0.23047 -0.22675,0.001 -0.611,0.0562 -0.85352,0.12109 -0.42184,0.11287 -0.43644,0.0873 -0.33789,-0.59766 l 0.10352,-0.71679 -0.25,0.54882 c -0.13712,0.30235 -0.25389,0.6436 -0.25781,0.75782 -0.0282,0.70822 -1.28004,0.32946 -1.29102,-0.39063 -0.0151,-0.98306 -0.36034,-0.85301 -0.36328,0.13672 -0.002,0.57948 -0.0774,1.05469 -0.16992,1.05469 -0.0925,0 -0.29203,0.0463 -0.44141,0.10351 -0.27964,0.10731 -0.29511,0.049 -0.60742,-2.21093 -0.17954,-1.29913 -0.4538,-0.32562 -0.40625,1.4414 0.065,2.41611 -0.82603,1.8784 -1.37891,-0.83203 -0.36024,-1.76607 -0.52087,-1.44797 -0.45312,0.90039 0.0777,2.69236 -0.0402,2.78659 -1.06836,0.85938 l -0.76563,-1.43555 0.10157,0.81641 c 0.0557,0.44872 0.25011,1.26797 0.43164,1.82226 l 0.33008,1.00782 -0.37305,-0.45508 c -0.52656,-0.64691 -1.25219,-2.12121 -1.62695,-3.30078 l -0.32032,-1.00782 -0.0176,0.9375 c -0.0235,1.31947 0.27775,2.7575 0.80079,3.82032 0.24618,0.50024 0.41694,0.94047 0.3789,0.97851 -0.25647,0.25648 -2.22985,-3.15421 -2.78906,-4.82031 -0.23957,-0.71378 -0.24298,-0.69561 -0.16406,0.6914 0.0889,1.56252 0.96315,3.69906 1.85937,4.54102 0.48997,0.46027 0.6252,0.91458 0.15625,0.52539 -0.70047,-0.58135 -2.02628,-2.73156 -2.57812,-4.18164 l -0.59961,-1.57617 -0.006,0.94336 c -0.007,1.04713 0.52007,2.92783 1.0957,3.91211 0.34144,0.58383 0.30026,0.56313 -0.44727,-0.23633 -1.02452,-1.09571 -1.87991,-2.57344 -2.49218,-4.30273 -0.51792,-1.46272 -0.76769,-1.56215 -0.61915,-0.2461 0.14571,1.29097 0.45479,2.40485 0.93164,3.36524 0.23769,0.47869 0.39267,0.87109 0.34571,0.87109 -0.24059,0 -1.86471,-2.56491 -2.57227,-4.0625 -0.67255,-1.42339 -0.78824,-1.5867 -0.69922,-0.97656 0.30844,2.11328 1.4563,4.45702 3.07618,6.27929 0.86201,0.96971 0.87907,1.00988 0.30273,0.67383 -1.02015,-0.59478 -3.20355,-2.87042 -4.22852,-4.40625 -0.53137,-0.79622 -1.00576,-1.48877 -1.05468,-1.53906 -0.0489,-0.0504 0.11603,0.4536 0.36718,1.12109 1.08449,2.88209 3.09953,5.09841 5.98829,6.58789 l 0.82421,0.42578 -1.2832,0.19336 -1.2832,0.19141 0.82617,0.31641 c 1.29761,0.49503 2.93846,0.875 3.77148,0.875 0.46063,0 0.85629,0.11083 0.9961,0.27929 0.27249,0.32834 0.29057,0.30574 -0.64649,0.78321 -0.91526,0.46637 -1.94823,1.53949 -2.45312,2.54883 -0.55444,1.10835 -0.50932,1.09826 0.75976,-0.1836 1.13357,-1.14498 1.91155,-1.63534 2.97657,-1.87305 l 0.55078,-0.12304 -0.55078,0.35351 c -0.68864,0.44206 -1.64147,1.51737 -2.03321,2.29492 l -0.29882,0.59376 0.80078,-0.75782 c 0.80191,-0.75988 1.18692,-1.01003 2.08007,-1.34961 0.52979,-0.20141 0.50129,-0.0392 -0.10937,0.64258 -0.37779,0.42183 -0.96327,1.734 -0.83203,1.86524 0.0481,0.0481 0.17319,-0.071 0.27734,-0.26563 0.37772,-0.70576 2.13919,-1.75012 2.56641,-1.52148 0.36934,0.19766 0.35377,0.23596 -0.4375,0.99414 -0.45227,0.43334 -0.82227,0.89927 -0.82227,1.03711 0,0.14774 0.24461,0.0198 0.59571,-0.3125 1.38036,-1.30656 2.73806,-1.3345 2.00195,-0.041 -0.1953,0.34318 -0.40581,0.91289 -0.46875,1.26562 -0.10883,0.60999 -0.0888,0.59365 0.44336,-0.33008 0.88704,-1.53983 1.58881,-1.53607 1.23242,0.006 -0.14492,0.62705 -0.14534,0.97969 0,1.28125 0.19774,0.41036 0.20064,0.41041 0.21289,-0.0918 0.0206,-0.84608 0.51135,-1.81747 0.88086,-1.74609 0.27468,0.0531 0.31789,0.24315 0.28906,1.25 l -0.0332,1.1875 0.16015,-0.89453 c 0.19856,-1.11212 0.35157,-1.27717 0.97266,-1.04102 0.32755,0.12453 0.45019,0.27605 0.37695,0.4668 -0.0595,0.15514 -0.0404,0.58962 0.041,0.96679 l 0.14649,0.68555 0.10156,-0.82422 c 0.11678,-0.95258 0.0312,-0.93354 2.80469,-0.58398 2.23071,0.28114 4.23426,0.0251 6.49804,-0.82617 1.69842,-0.63871 1.91093,-0.67428 4.05274,-0.68555 l 2.25976,-0.0117 -0.70312,-0.32617 c -0.87002,-0.40356 -2.24529,-0.33886 -5.09961,0.23828 -5.50035,1.11219 -8.95203,0.38576 -12.7793,-2.68945 -2.68853,-2.16023 -1.97488,-4.12112 1.78516,-4.9043 l 0.55078,-0.11523 v 1.51758 c 0,7.1778 10.07642,7.91813 11.50781,0.8457 l 0.22266,-1.09766 1.37109,1.1836 c 3.31126,2.85631 4.15652,4.14978 2.92188,4.47265 -0.46171,0.12069 -0.46409,0.41797 -0.004,0.41797 0.40842,0 0.92773,-0.46205 0.92773,-0.82422 0,-0.13648 0.41892,0.17761 0.92969,0.69922 0.86651,0.8849 0.90747,0.90671 0.62109,0.32422 -2.35989,-4.80017 -6.35854,-8.57514 -10.56445,-9.97265 -0.36895,-0.1226 -0.76855,-1.45746 -0.61719,-2.06055 l 0.10547,-0.42383 1.03711,0.35742 c 0.57079,0.19639 1.66372,0.69449 2.42773,1.10547 1.25804,0.67672 1.77522,1.03514 3.86329,2.68164 0.58973,0.46502 0.57449,0.4309 -0.17774,-0.41015 -2.20101,-2.46094 -4.81046,-4.22475 -7.42773,-5.02344 -0.40311,-0.12302 -0.85665,-0.26942 -1.00782,-0.32422 -0.15116,-0.0549 -0.68384,-0.13654 -1.18359,-0.18164 -1.31967,-0.11887 -1.37425,-0.17733 -1.11328,-1.19336 0.13375,-0.52073 0.16719,-0.77293 0.0977,-0.75391 z m 15.34766,37.30078 c -3.39037,0.62276 -5.06514,3.46449 -3.20117,6.37695 1.86395,2.91247 6.07387,2.99085 8.04492,0.15039 2.15209,1.62155 5.37903,1.62305 6.45508,1.62305 1.07604,0 4.30298,-0.001 6.45507,-1.62305 1.97105,2.84046 6.18292,2.76207 8.04688,-0.15039 1.86395,-2.91246 0.18918,-5.75419 -3.20117,-6.37695 2.4263,0.86628 2.91514,3.05698 0.85547,4.60937 -2.05969,1.55239 -5.01102,0.17635 -5.16016,-2.40625 -0.53802,1.08104 -2.69192,4.32422 -6.99609,4.32422 -4.30418,0 -6.45613,-3.24318 -6.99415,-4.32422 -0.14913,2.5826 -3.10046,3.95864 -5.16015,2.40625 -2.05969,-1.55239 -1.57084,-3.7431 0.85547,-4.60937 z m 6.00195,14.5957 c -5.38021,0 -7.53085,4.8643 -12.37305,8.10742 2.6901,-1.08103 4.84127,-3.24416 8.60743,-5.40625 3.76615,-2.16208 6.9944,0.54102 9.14648,0.54102 2.15209,0 5.38033,-2.7031 9.14648,-0.54102 3.76617,2.16209 5.91733,4.32522 8.60743,5.40625 -4.84221,-3.24311 -6.99284,-8.10742 -12.37305,-8.10742 -1.07604,0 -3.22877,0.53809 -5.38086,1.61914 -2.15208,-1.08103 -4.30482,-1.61914 -5.38086,-1.61914 z m 23.13477,8.10742 c -0.72282,-0.066 -1.38497,-0.10036 -1.99805,-0.10937 -9.21539,-0.0587 -6.72007,6.05469 -15.75586,6.05469 -9.03578,0 -6.54048,-6.11338 -15.75586,-6.05469 -0.61308,0.009 -1.27523,0.0434 -1.99805,0.10937 11.29846,1.08104 5.91743,7.56641 17.75391,7.56641 11.83648,0 6.45545,-6.48538 17.75391,-7.56641 z M 180,223.80664 c -4.26435,0 -9.68552,4.59433 -9.68555,9.73047 2.65245,-9.89905 16.47689,-10.0705 19.3711,0 -4e-5,-5.6136 -5.34335,-9.73047 -9.68555,-9.73047 z m -15.75586,-7.67578 c 10.59543,-1.64856 11.39987,1.1007 15.75586,1.18945 4.21698,0 6.56267,-3.0967 15.75586,-1.18945 C 185.34212,213.06113 183.18764,215.1582 180,215.1582 c -3.18764,0 -5.34212,-2.09706 -15.75586,0.97266 z" />
      </g>
    </g>
  </g>
  <g
     id="dark">
    <g
       fill="#bb1122"
       stroke="#000000"
       id="g62">
      <use
         xlink:href="#g-a"
         id="use61" />
      <use
         xlink:href="#g-b"
         id="use62" />
    </g>
    <g
       fill="#bb1122"
       stroke="#000000"
       id="g63">
      <use
         xlink:href="#g-circle"
         id="use63" />
    </g>
    <g
       fill="#000000"
       id="g64">
      <use
         xlink:href="#g-spikes"
         id="use64" />
    </g>
    <g
       fill="#000000"
       id="g65">
      <use
         xlink:href="#g-face"
         id="use65" />
    </g>
  </g>
  <g
     id="light">
    <g
       fill="#cc9933"
       stroke="#000000"
       id="g67">
      <use
         xlink:href="#g-a"
         id="use66" />
      <use
         xlink:href="#g-b"
         id="use67" />
    </g>
    <g
       fill="#cc9933"
       stroke="#000000"
       id="g68">
      <use
         xlink:href="#g-circle"
         id="use68" />
    </g>
    <g
       fill="#000000"
       id="g69">
      <use
         xlink:href="#g-spikes"
         id="use69" />
    </g>
    <g
       fill="#000000"
       id="g70">
      <use
         xlink:href="#g-face"
         id="use70" />
    </g>
  </g>
</svg>
