<?xml version="1.0" encoding="UTF-8" standalone="no"?>
<svg
   width="128"
   height="128"
   viewBox="0 0 128 128"
   version="1.1"
   id="svg70"
   sodipodi:docname="sol.svg"
   inkscape:version="1.4 (86a8ad7, 2024-10-11)"
   xmlns:inkscape="http://www.inkscape.org/namespaces/inkscape"
   xmlns:sodipodi="http://sodipodi.sourceforge.net/DTD/sodipodi-0.dtd"
   xmlns="http://www.w3.org/2000/svg"
   xmlns:svg="http://www.w3.org/2000/svg">
  <sodipodi:namedview
     id="namedview70"
     pagecolor="#505050"
     bordercolor="#eeeeee"
     borderopacity="1"
     inkscape:showpageshadow="0"
     inkscape:pageopacity="0"
     inkscape:pagecheckerboard="0"
     inkscape:deskcolor="#505050"
     inkscape:zoom="8"
     inkscape:cx="50.6875"
     inkscape:cy="65.8125"
     inkscape:window-width="2560"
     inkscape:window-height="1369"
     inkscape:window-x="1072"
     inkscape:window-y="468"
     inkscape:window-maximized="1"
     inkscape:current-layer="svg70"
     showgrid="true"
     showguides="true" />
  <defs
     id="defs1">
    <style
       id="style1">
            #light, #dark {
                display: none;
            }
            #light:target, #dark:target {
                display: block;
            }
        </style>
  </defs>
  <rect
     style="display:inline;fill:#cc9933;fill-opacity:1;stroke:none;stroke-width:3"
     id="rect70"
     width="128"
     height="128"
     x="1.3984334e-06"
     y="0"
     inkscape:label="bg"
     sodipodi:insensitive="true" />
  <g
     id="g2"
     inkscape:label="face"
     style="display:inline;stroke-width:0.849999"
     transform="matrix(1.1764718,0,0,1.1764718,-12.470667,9.7293001)">
    <path
       d="m 53.38961,52.206637 c -3.45817,0.63521 -5.16687,3.5332 -3.26563,6.50391 1.90123,2.97071 6.19657,3.05156 8.20704,0.1543 2.19513,1.65398 5.48642,1.65429 6.58398,1.65429 1.09756,0 4.38885,-3.1e-4 6.58398,-1.65429 2.01047,2.89726 6.3058,2.8164 8.20704,-0.1543 1.90123,-2.97071 0.19253,-5.86869 -3.26563,-6.50391 2.47483,0.88361 2.97392,3.11774 0.87305,4.70118 -2.10088,1.58343 -5.11155,0.17916 -5.26367,-2.45508 -0.54878,1.10266 -2.74452,4.41211 -7.13477,4.41211 -4.39025,0 -6.58599,-3.30945 -7.13477,-4.41211 -0.15212,2.63424 -3.16279,4.03851 -5.26367,2.45508 -2.10088,-1.58344 -1.60178,-3.81758 0.87305,-4.70118 z m 6.122111,14.88672 c -5.48781,0 -7.68206,4.96155 -12.6211,8.26953 2.7439,-1.10265 4.93782,-3.30835 8.7793,-5.51367 3.84147,-2.20532 7.13496,0.55078 9.33008,0.55078 2.19513,0 5.48861,-2.7561 9.33008,-0.55078 3.84148,2.20532 6.0354,4.41102 8.7793,5.51367 -4.93904,-3.30797 -7.13329,-8.26953 -12.6211,-8.26953 -1.09756,0 -3.29315,0.54968 -5.48828,1.65235 -2.19512,-1.10265 -4.39072,-1.65235 -5.48828,-1.65235 z m 23.59766,8.26953 c -0.73727,-0.0673 -1.41373,-0.10214 -2.03907,-0.11133 -9.39969,-0.0599 -6.85381,6.17579 -16.07031,6.17579 -9.21649,0 -6.67063,-6.23565 -16.07031,-6.17579 -0.62534,0.009 -1.3018,0.044 -2.03907,0.11133 11.52441,1.10266 6.03618,7.71875 18.10938,7.71875 12.0732,0 6.58497,-6.6161 18.10938,-7.71875 z m -18.10938,7.71875 c -4.34963,0 -9.87888,4.68497 -9.87891,9.92383 2.70549,-10.09702 16.80573,-10.2719 19.75782,0 -4e-5,-5.72587 -5.44987,-9.92383 -9.87891,-9.92383 z m -16.07031,-7.83008 c 10.80733,-1.68153 11.6272,1.12237 16.07031,1.2129 4.30132,0 6.69327,-3.15829 16.07031,-1.2129 -10.622,-3.13112 -12.81892,-0.99218 -16.07031,-0.99218 -3.25139,0 -5.44831,-2.13893 -16.07031,0.99218 z"
       id="path60"
       style="display:inline;fill:#000000;stroke-width:0.849999"
       sodipodi:nodetypes="cscscscscscscscssscscsccsccscsccscccsc"
       inkscape:label="mouth" />
    <g
       id="g1"
       inkscape:label="eyes"
       style="stroke-width:0.849999">
      <path
         style="display:inline;fill:#000000;stroke-width:0.849998"
         d="m 34.108224,33.236848 c -0.0831,-0.38472 -0.10136,-0.82896 -0.0407,-0.98721 0.0747,-0.19456 -0.0496,-0.34858 -0.3837,-0.4756 -0.63351,-0.24087 -0.79126,-0.0723 -0.99379,1.06206 l -0.16306,0.91331 0.0347,-1.21209 c 0.0294,-1.02698 -0.0157,-1.22185 -0.29587,-1.27596 -0.3769,-0.0728 -0.87589,0.91818 -0.89689,1.78118 -0.0125,0.51225 -0.0157,0.51367 -0.21739,0.0951 -0.14825,-0.30759 -0.14839,-0.6687 -5.7e-4,-1.30829 0.36352,-1.57277 -0.3515,-1.57563 -1.25628,-0.005 -0.54278,0.9422 -0.56496,0.95863 -0.45395,0.33644 0.0642,-0.35979 0.27968,-0.94054 0.47888,-1.29059 0.75083,-1.31935 -0.63443,-1.29129 -2.0424,0.0414 -0.35812,0.33897 -0.60743,0.47004 -0.60743,0.31934 0,-0.14059 0.37744,-0.61725 0.83875,-1.05926 0.8071,-0.77334 0.82397,-0.81158 0.44724,-1.0132 -0.43576,-0.23321 -2.23303,0.83214 -2.6183,1.55202 -0.10624,0.19851 -0.23332,0.32075 -0.28242,0.27167 -0.13386,-0.13386 0.4629,-1.47239 0.84825,-1.90265 0.62287,-0.69545 0.65081,-0.86142 0.11043,-0.65598 -0.91102,0.34637 -1.30366,0.60105 -2.121611,1.37613 l -0.81524,0.77249 0.30476,-0.6049 c 0.39957,-0.7931 1.370881,-1.88958 2.073291,-2.34048 l 0.56071,-0.35993 -0.5607,0.12516 c -1.086311,0.24246 -1.880871,0.74215 -3.037111,1.91003 -1.29447,1.30749 -1.34003,1.31853 -0.7745,0.18801 0.51499,-1.02952 1.56974,-2.12553 2.50331,-2.60123 0.955791,-0.48702 0.935841,-0.46282 0.657901,-0.79772 -0.142601,-0.17183 -0.545471,-0.28486 -1.015311,-0.28486 -0.84968,0 -2.52425,-0.38906 -3.84781,-0.89399 l -0.84104,-0.32085 1.30829,-0.19654 1.30829,-0.19654 -0.84104,-0.43365 c -2.94653,-1.51927 -5.00117,-3.7799 -6.10734,-6.71963 -0.25618,-0.68084 -0.42498,-1.19585 -0.37511,-1.14445 0.0499,0.0513 0.53414,0.75793 1.07614,1.57008 1.04546,1.56654 3.27369,3.88795 4.31424,4.49463 0.58787,0.34277 0.56957,0.30215 -0.30968,-0.68695 -1.65227,-1.85872 -2.82401,-4.25016 -3.13862,-6.40571 -0.0908,-0.62234 0.0289,-0.45541 0.7149,0.99645 0.72171,1.52754 2.37781,4.14327 2.62321,4.14327 0.0479,0 -0.1112,-0.39949 -0.35364,-0.88776 -0.48639,-0.97959 -0.8008,-2.1166 -0.94942,-3.43339 -0.15152,-1.34237 0.10259,-1.24146 0.63086,0.25051 0.62452,1.76388 1.49841,3.27213 2.54342,4.38975 0.76248,0.81545 0.80325,0.83711 0.45498,0.2416 -0.58714,-1.00396 -1.12462,-2.92323 -1.11774,-3.9913 l 0.006,-0.96153 0.61186,1.6078 c 0.56288,1.47908 1.91509,3.67253 2.62957,4.26551 0.47833,0.39697 0.34129,-0.0664 -0.15848,-0.53587 -0.91415,-0.8588 -1.80722,-3.03854 -1.89791,-4.6323 -0.0805,-1.41475 -0.0761,-1.43319 0.16826,-0.70514 0.57039,1.69942 2.583271,5.17793 2.844871,4.91632 0.0388,-0.0388 -0.13496,-0.48796 -0.38607,-0.99821 -0.533491,-1.08407 -0.841091,-2.55104 -0.817071,-3.89689 l 0.0171,-0.95572 0.32659,1.02795 c 0.38226,1.20316 1.123931,2.70612 1.661021,3.36596 l 0.37887,0.46547 -0.33665,-1.02794 c -0.18516,-0.56538 -0.38315,-1.40243 -0.43998,-1.86013 l -0.10334,-0.83219 0.78161,1.46514 c 1.04869,1.96575 1.16863,1.8692 1.08942,-0.877 -0.0691,-2.39533 0.0939,-2.71981 0.46135,-0.91842 0.56393,2.76463 1.47318,3.31313 1.40687,0.8487 -0.0485,-1.80236 0.23174,-2.79575 0.41487,-1.47064 0.31856,2.30514 0.33505,2.3651 0.62028,2.25565 0.15237,-0.0584 0.35425,-0.10631 0.44864,-0.10631 0.0944,0 0.1729,-0.4836 0.17448,-1.07467 0.003,-1.00953 0.35558,-1.14289 0.37093,-0.14017 0.0112,0.73449 1.28798,1.12112 1.31672,0.39873 0.004,-0.1165 0.12288,-0.46414 0.26274,-0.77253 l 0.25432,-0.5607 -0.10508,0.73032 c -0.10052,0.69868 -0.0856,0.7251 0.34468,0.60997 0.24737,-0.0662 0.639,-0.12149 0.87028,-0.12289 0.23129,-8.8e-4 0.42432,-0.10768 0.42896,-0.23618 0.004,-0.1285 0.12286,-0.48594 0.26273,-0.79432 l 0.25431,-0.56069 -0.10029,0.70087 c -0.16749,1.17049 1.0527,1.05725 1.65755,-0.15384 0.5713,-1.14392 0.70576,-1.1807 0.43291,-0.11842 -0.26619,1.03635 -0.20949,1.09714 1.13657,1.21839 0.50974,0.046 1.05297,0.12928 1.20716,0.18526 0.15419,0.0559 0.61677,0.20444 1.02794,0.32992 2.66962,0.81466 5.331049,2.61514 7.576079,5.12529 0.76727,0.85787 0.78177,0.89142 0.18024,0.4171 -2.12982,-1.67943 -2.65683,-2.04533 -3.94003,-2.73558 -0.77929,-0.4192 -1.893249,-0.92606 -2.475459,-1.12638 l -1.05856,-0.3642 -0.10838,0.43176 c -0.15439,0.61515 0.2539,1.97677 0.63023,2.10182 4.290029,1.42546 8.369299,5.276 10.776389,10.17217 0.2921,0.59414 0.24966,0.57202 -0.63418,-0.33057 -0.52098,-0.53204 -0.94722,-0.85343 -0.94722,-0.71422 0,0.36941 -0.53126,0.84049 -0.94785,0.84049 -0.46938,0 -0.46594,-0.30262 0.005,-0.42572 1.25933,-0.32933 0.3974,-1.6489 -2.98008,-4.56234 l -1.39994,-1.2076 -0.22688,1.12094 c -1.46002,7.21387 -11.738219,6.45743 -11.738219,-0.86392 v -1.5465 l -0.5607,0.11678 c -3.83524,0.79884 -4.56347,2.79918 -1.82117,5.00261 3.90381,3.13671 7.42477,3.87769 13.035119,2.74326 2.9114,-0.58869 4.31433,-0.65409 5.20175,-0.24246 l 0.71618,0.33219 -2.30482,0.0122 c -2.18464,0.0115 -2.40012,0.048 -4.1325,0.69948 -2.309059,0.86831 -4.354169,1.12776 -6.629499,0.84099 -2.8289,-0.35655 -2.74075,-0.37494 -2.85987,0.59669 l -0.10312,0.84106 z m 16.524039,-19.15571 c -15.505989,-9.04513 -21.594769,-10.02417 -34.7165,-5.58219 -1.05364,0.35668 -1.91571,0.61867 -1.91571,0.58219 0,-0.13687 5.01193,-3.43921 6.44802,-4.24857 7.967201,-4.49027 11.803421,-4.16601 25.812,2.1818 l 3.19723,1.44879 0.62358,1.289 c 0.59395,1.22777 0.92517,1.59629 0.92517,1.02939 0,-0.14281 0.1695,-0.45821 0.37665,-0.70088 l 0.37666,-0.44123 -0.0988,0.46725 c -0.0544,0.25699 -0.0208,0.71957 0.0745,1.02795 0.0953,0.30838 0.18052,0.42381 0.18936,0.25651 0.0419,-0.79448 0.48501,-0.67475 0.51652,0.13957 0.0177,0.4578 0.20673,1.37255 0.42004,2.03276 0.50534,1.56423 0.48931,1.74802 -0.10481,1.20155 -0.48271,-0.444 -0.48822,-0.44465 -0.27377,-0.0326 0.29924,0.57503 0.18028,0.53315 -1.85021,-0.65129 z"
         id="path75"
         inkscape:label="left eye"
         sodipodi:nodetypes="cccscscccccscssssscccccscccccsssscccscccccccsscccsccccccsscccsccsccccssccscccccccccscssscccsccccccsssscsccscccssccccscccsscsccscccscccsccc" />
      <path
         style="display:inline;fill:#000000;stroke-width:0.849998"
         d="m 95.669522,33.250748 c -0.0193,-1.11432 -0.13705,-1.26847 -0.81966,-1.07258 -2.65066,0.76065 -5.62129,0.56302 -8.98828,-0.59799 -2.1476,-0.74054 -2.29513,-0.76528 -4.1537,-0.69648 -1.95984,0.0726 -2.15549,-1.7e-4 -1.02096,-0.37949 0.90818,-0.30364 1.90638,-0.26183 4.03717,0.16907 6.7864,1.37239 10.64801,0.57574 14.46385,-2.98388 2.152108,-2.00763 1.716158,-3.15677 -1.6438,-4.33294 -1.35031,-0.47268 -1.30371,-0.5014 -1.19165,0.73439 0.68037,7.50329 -10.40112,8.712761 -11.80261,1.28818 l -0.20412,-1.08135 -1.21258,1.01355 c -3.33358,2.786417 -4.42037,4.41385 -3.16651,4.74174 0.47079,0.12312 0.47422,0.42573 0.005,0.42573 -0.41659,0 -0.94785,-0.47109 -0.94785,-0.8405 0,-0.13921 -0.42591,0.182194 -0.94648,0.71423 l -0.94648,0.96732 0.40922,-0.84105 c 2.13244,-4.382708 5.85271,-8.02248 9.84516,-9.6321 1.45946,-0.58841 2.2974,-3.07787 0.9264,-2.75231 -1.52575,0.36232 -4.27439,1.934945 -6.57778,3.76346 l -1.30829,1.03857 0.90959,-1.02145 c 1.98063,-2.224203 4.71446,-4.15473 7.02688,-4.96212 0.77466,-0.27047 1.53464,-0.53764 1.68883,-0.59373 0.40399,-0.14694 0.56767,-0.17099 1.40175,-0.20594 1.16693,-0.0489 1.26343,-0.177084 0.94288,-1.25242 l -0.275,-0.92252 0.36046,0.46725 c 0.19826,0.25698 0.45768,0.69853 0.57651,0.98122 0.38226,0.90943 1.56236,0.754931 1.42759,-0.18691 l -0.10029,-0.70087 0.25431,0.5607 c 0.13987,0.308381 0.2581,0.66583 0.26273,0.79432 0.004,0.12849 0.19767,0.23477 0.42896,0.23618 0.23128,8.9e-4 0.62291,0.0567 0.87028,0.12289 0.43027,0.11513 0.44521,0.0887 0.34468,-0.60997 l -0.10508,-0.73032 0.25432,0.5607 c 0.13986,0.30839 0.2581,0.65602 0.26274,0.77253 0.0112,0.28078 1.00161,0.46286 1.15631,0.21256 0.0665,-0.10757 0.19039,-0.54143 0.27535,-0.96414 0.15389,-0.76568 0.15469,-0.7642 0.21558,0.39957 0.0337,0.64247 0.13433,1.16812 0.22382,1.16812 0.0895,0 0.28735,0.0478 0.43972,0.10631 0.28512,0.1094 0.29432,0.0761 0.62277,-2.25565 0.179008,-1.27083 0.394788,-0.53769 0.420428,1.42848 0.032,2.44979 0.82824,1.99065 1.39882,-0.80655 0.36746,-1.80139 0.53045,-1.47691 0.46135,0.91844 -0.0792,2.74619 0.0408,2.84275 1.08942,0.87698 l 0.78162,-1.46513 -0.10335,0.83218 c -0.0568,0.45771 -0.24699,1.26981 -0.42258,1.80469 -0.6596,2.00924 0.70504,-0.121117 1.51692,-2.3681 l 0.5087,-1.40789 0.0104,0.95571 c 0.0143,1.3046 -0.27796,2.73432 -0.77241,3.77896 -0.22709,0.47977 -0.45188,0.95641 -0.49955,1.0592 -0.0476,0.1028 0.0463,0.0772 0.20876,-0.0568 0.58843,-0.4856 1.9,-2.720425 2.41748,-4.11925 l 0.52932,-1.43084 -0.0656,1.30829 c -0.0799,1.593929 -0.61311,3.02623 -1.61919,4.3492 -0.78906,1.03758 -0.94701,1.37437 -0.45185,0.96341 0.7145,-0.59297 2.06671,-2.786421 2.62959,-4.26551 l 0.61186,-1.60779 0.006,0.9473 c 0.007,1.1296 -0.41281,2.661004 -1.04777,3.81862 l -0.46132,0.84105 0.93379,-1.0048 c 1.03647,-1.115295 2.04963,-2.91934 2.55838,-4.55545 0.41619,-1.33843 0.60774,-1.37355 0.50964,-0.0935 -0.10251,1.33763 -0.40535,2.4932 -0.93062,3.55109 -0.24244,0.48827 -0.40158,0.88777 -0.35365,0.88777 0.23798,0 1.88779,-2.58962 2.63487,-4.13585 0.69813,-1.44486 0.82544,-1.6206 0.72729,-1.00388 -0.34682,2.17928 -1.52398,4.56346 -3.1611,6.40239 -0.75648,0.84972 -0.82719,0.98069 -0.37381,0.69242 1.70344,-1.0831 3.56262,-3.08801 4.85737,-5.23816 0.77429,-1.28583 0.80393,-1.23395 0.20463,0.35821 -1.05314,2.79792 -3.1937,5.185492 -5.9046,6.58596 l -1.02794,0.53104 1.30829,0.19614 1.30829,0.19614 -0.84105,0.31815 c -1.34339,0.50821 -3.0043,0.8913 -3.86412,0.8913 -1.20256,0 -1.43845,0.57526 -0.42358,1.03291 0.93629,0.4222 2.05917,1.629218 2.70943,2.91243 l 0.501,0.98867 -1.28363,-1.31065 c -1.26011,-1.286633 -2.03657,-1.788453 -3.15262,-2.03758 l -0.5607,-0.12516 0.5607,0.35993 c 0.70242,0.450908 1.67373,1.547379 2.07331,2.34049 l 0.30475,0.60489 -0.81523,-0.77399 c -1.31483,-1.248313 -3.29092,-2.0333 -2.16841,-0.86138 0.41867,0.43711 1.07282,1.66276 1.07282,2.0101 0,0.0585 -0.34359,-0.22376 -0.76355,-0.62731 -1.08458,-1.04215 -1.92986,-1.47318 -2.29489,-1.17022 -0.2458,0.20399 -0.17289,0.34154 0.54635,1.03069 0.4565,0.4374 0.83,0.91031 0.83,1.05088 0,0.1507 -0.24929,0.0196 -0.60741,-0.31933 -1.40798,-1.33267 -2.793228,-1.36073 -2.04241,-0.0414 0.1992,0.35004 0.4147,0.9308 0.47889,1.29058 0.111,0.62219 0.0888,0.60575 -0.45396,-0.33645 -0.868318,-1.50731 -1.651848,-1.5817 -1.258778,-0.11951 0.1195,0.44453 0.14136,0.98646 0.0528,1.3083 -0.15118,0.54922 -0.15128,0.54914 -0.29827,-0.23623 -0.37264,-1.99101 -1.2179,-2.16517 -1.16272,-0.23956 l 0.0347,1.21208 -0.16308,-0.91331 c -0.24792,-1.388425 -1.5567,-1.73935 -1.35868,-0.36429 0.042,0.29151 -0.008,0.74027 -0.11162,0.99726 -0.17773,0.44185 -0.18858,0.42999 -0.19978,-0.21834 z M 76.780881,14.987388 c 0,-0.12293 0.17451,-0.76369 0.3878,-1.42391 0.2133,-0.66021 0.40231,-1.57496 0.42003,-2.03276 0.0315,-0.81432 0.47456,-0.93405 0.51653,-0.13957 0.009,0.1673 0.094,0.0519 0.18935,-0.25651 0.0953,-0.30838 0.12885,-0.77096 0.0745,-1.02795 l -0.0988,-0.46725 0.37665,0.44123 c 0.20716,0.242674 0.37665,0.55807 0.37665,0.70088 0,0.56781 0.33164,0.19749 0.92901,-1.03732 0.70418,-1.4556 0.0538,-1.04215 5.51901,-3.5089 13.29956,-6.00288 17.528059,-5.89102 27.499359,0.72746 1.70031,1.12859 3.06306,2.07709 3.02833,2.10779 -0.0347,0.0307 -1.1635,-0.30733 -2.5084,-0.75117 -12.76097,-4.2114 -17.562588,-3.45453 -33.149968,5.22541 -3.27035,1.82112 -3.02549,1.71177 -2.86842,1.28108 0.10707,-0.29364 0.0778,-0.29067 -0.28622,0.0289 -0.24073,0.21137 -0.40549,0.26522 -0.40549,0.13253 z"
         id="path75-4"
         inkscape:label="right eye"
         sodipodi:nodetypes="csscsssscscssssscsssscsscsscccscsccsscccsscscscsccccssccsccscsscsccscssssscssssssccccssscsscsscssscssscsscscsccscccccscccccssscsccscccc" />
    </g>
  </g>
</svg>
